<svg width="323" height="323" viewBox="0 0 323 323" fill="none" xmlns="http://www.w3.org/2000/svg">
<rect width="323" height="323" fill="url(#paint0_linear_227_10)"/>
<rect width="323" height="323" fill="url(#paint1_linear_227_10)"/>
<path d="M114.33 152.272V98.7462H96.8984V87.6719H143.041V98.7462H125.61V152.272H114.33Z" fill="white"/>
<path d="M203.028 152.272C195.979 152.272 190.371 150.142 186.206 145.883C182.04 141.564 179.957 135.412 179.957 127.426V112.518C179.957 104.532 182.04 98.409 186.206 94.1496C190.371 89.8311 195.979 87.6719 203.028 87.6719C210.078 87.6719 215.686 89.8311 219.851 94.1496C224.017 98.409 226.1 104.532 226.1 112.518V127.426C226.1 135.412 224.017 141.564 219.851 145.883C215.686 150.142 210.078 152.272 203.028 152.272ZM203.028 141.801C206.981 141.801 210.051 140.529 212.241 137.985C214.431 135.442 215.525 132.04 215.525 127.781V112.163C215.525 107.904 214.431 104.502 212.241 101.958C210.051 99.4146 206.981 98.1428 203.028 98.1428C199.13 98.1428 196.059 99.4146 193.816 101.958C191.626 104.502 190.531 107.904 190.531 112.163V127.781C190.531 132.04 191.626 135.442 193.816 137.985C196.059 140.529 199.13 141.801 203.028 141.801Z" fill="white"/>
<path d="M96.8984 235.33V170.73H118.426L130.348 227.025H131.892V170.73H143.041V235.33H121.514L109.592 179.036H108.048V235.33H96.8984Z" fill="white"/>
<circle cx="203.025" cy="203.025" r="9.22857" fill="white"/>
<defs>
<linearGradient id="paint0_linear_227_10" x1="30.2813" y1="306.85" x2="755.013" y2="111.031" gradientUnits="userSpaceOnUse">
<stop stop-color="#FD9EBD"/>
<stop offset="0.0708374" stop-color="#FF8D50"/>
<stop offset="0.184248" stop-color="#8DB9E8"/>
<stop offset="0.257486" stop-color="#F0AB78"/>
<stop offset="0.468234" stop-color="white"/>
<stop offset="0.506157" stop-color="white"/>
<stop offset="0.831842" stop-color="#F0AB78"/>
<stop offset="0.882302" stop-color="#8DB9E8"/>
<stop offset="0.962462" stop-color="#FF8D50"/>
<stop offset="1" stop-color="#FD9EBD"/>
</linearGradient>
<linearGradient id="paint1_linear_227_10" x1="161.5" y1="-4.75" x2="161.5" y2="325.375" gradientUnits="userSpaceOnUse">
<stop stop-color="#353045"/>
<stop offset="0.3" stop-color="#DEC3AE"/>
<stop offset="0.453528" stop-color="#FC7F32"/>
<stop offset="0.639341" stop-color="#DD1B11"/>
<stop offset="1" stop-color="#1B1A1C"/>
</linearGradient>
</defs>
</svg>
